Coordinates
version=1
nRows=19
nColumns=24
inDegrees=yes

Units are S.I. units (second, meters, Newtons, ...)
Angles are in degrees.

endheader
time	pelvis_tilt	pelvis_list	pelvis_rotation	pelvis_tx	pelvis_ty	pelvis_tz	hip_flexion_r	hip_adduction_r	hip_rotation_r	knee_angle_r	ankle_angle_r	subtalar_angle_r	mtp_angle_r	hip_flexion_l	hip_adduction_l	hip_rotation_l	knee_angle_l	ankle_angle_l	subtalar_angle_l	mtp_angle_l	lumbar_extension	lumbar_bending	lumbar_rotation
      1.26616667	      2.04553303	     -5.30663964	     -2.35960344	      0.03709986	      1.04328417	      0.31165896	    -21.86367484	     10.12799667	     -1.62957870	     -8.76652074	      3.44412322	     -4.59088838	     -0.61210723	     21.70004462	     -1.77836601	     -9.88706055	     -0.54115808	     14.86212790	     10.07968289	     -3.23175574	      1.79491716	      9.29910221	      2.01558190
      1.27033333	      2.07194559	     -5.27574750	     -2.41585668	      0.04317334	      1.04316364	      0.31186718	    -21.94903646	     10.04053225	     -1.60240905	     -9.28753966	      3.32923039	     -4.58292416	     -0.59368406	     21.57389868	     -1.75391445	     -9.79802082	     -0.94685881	     14.81124283	     10.02523483	     -3.23275530	      1.87643487	      9.22335040	      2.03391019
      1.27450000	      2.18127908	     -5.13766153	     -2.52901502	      0.04953831	      1.04326008	      0.31202650	    -22.11323251	      9.78935515	     -1.73917333	     -9.78462511	      2.60696555	     -4.37794222	     -0.41930894	     21.27633860	     -1.61385636	     -9.77789838	     -1.21837110	     14.50223509	      9.35477599	     -3.23972384	      1.87778108	      8.99033689	      2.12730586
      1.27866667	      2.23923797	     -5.03623877	     -2.65618175	      0.05582869	      1.04331461	      0.31215146	    -22.18071474	      9.56852488	     -1.91273532	    -10.38993615	      2.18692878	     -4.25584110	     -0.23468127	     21.02432586	     -1.51289969	     -9.71660343	     -1.45937583	     14.18847429	      8.80074077	     -3.23688619	      1.82932615	      8.84854437	      2.20202974
      1.28283333	      2.33895067	     -4.91760374	     -2.76466145	      0.06217180	      1.04345428	      0.31221699	    -22.29221574	      9.32398683	     -2.02099992	    -10.98610056	      1.77786901	     -4.00027814	      0.20543011	     20.66425736	     -1.37447387	     -9.29943833	     -1.56718428	     13.70981666	      7.97328971	     -3.20209356	      1.79194596	      8.69136282	      2.35209031
      1.28700000	      2.33588964	     -4.83246722	     -2.92649155	      0.06851450	      1.04351280	      0.31241120	    -22.24690448	      9.10740170	     -2.19877802	    -11.68548212	      1.41376524	     -3.95333482	      0.30727444	     20.46889077	     -1.31105509	     -9.48596469	     -1.80558174	     13.50506650	      7.75062658	     -3.19248805	      1.80346682	      8.59754588	      2.36441814
      1.29116667	      2.35803739	     -4.71249028	     -3.12289657	      0.07498461	      1.04368154	      0.31265970	    -22.22742555	      8.83419319	     -2.29892964	    -12.36495948	      0.81207361	     -3.78587989	      0.43946844	     20.19067316	     -1.21777743	     -9.59949096	     -1.93591662	     13.03672709	      7.44974727	     -3.17911296	      1.87248441	      8.41570118	      2.41676005
      1.29533333	      2.44746628	     -4.62027254	     -3.23325341	      0.08132095	      1.04391007	      0.31284649	    -22.26015309	      8.62021828	     -2.41311549	    -13.05326934	      0.18723239	     -3.58709671	      0.65175553	     19.86583491	     -1.12906840	     -9.66150547	     -2.08036562	     12.42542597	      6.92518167	     -3.14733323	      1.93939068	      8.21368710	      2.51851915
      1.29950000	      2.53772681	     -4.49190555	     -3.41613632	      0.08776545	      1.04422674	      0.31297320	    -22.26969932	      8.31532671	     -2.52221661	    -13.79493989	     -0.39945608	     -3.35709418	      1.10264826	     19.44984133	     -0.99679792	     -9.40135639	     -2.05442039	     11.70330878	      6.10216837	     -3.05106749	      1.89084678	      8.03035048	      2.68328875
      1.30366667	      2.57068256	     -4.37921114	     -3.58672528	      0.09420070	      1.04448647	      0.31313262	    -22.18095523	      8.03773294	     -2.71397262	    -14.59896617	     -1.00704761	     -3.17318369	      1.42131631	     19.14826158	     -0.89450958	     -9.52260293	     -2.13804285	     11.14867729	      5.63873714	     -2.97519022	      1.93835342	      7.88070463	      2.75401194
      1.30783333	      2.66108640	     -4.28167096	     -3.69134748	      0.10049239	      1.04481002	      0.31308631	    -22.11891019	      7.77805346	     -2.98268151	    -15.44688903	     -1.55769789	     -3.02658585	      2.38185015	     18.77205511	     -0.76388405	     -9.27086158	     -2.15369275	     10.35024450	      4.50185855	     -2.70305020	      1.81477766	      7.74133727	      2.94046811
      1.31200000	      2.65060676	     -4.15331745	     -3.90814313	      0.10705216	      1.04510696	      0.31336531	    -21.95346093	      7.46448329	     -3.08141737	    -16.29006889	     -2.30511870	     -2.78621213	      2.68184017	     18.49813634	     -0.66928117	     -9.50598661	     -2.22191880	      9.81736984	      4.38547468	     -2.61764488	      1.98891596	      7.55988543	      2.95421816
      1.31616667	      2.67269341	     -4.03656164	     -4.06780180	      0.11347238	      1.04544183	      0.31353739	    -21.78273852	      7.17265258	     -3.28757201	    -17.18527153	     -3.02998035	     -2.62185545	      2.91023162	     18.22731723	     -0.56746507	     -9.77234371	     -2.33958870	      9.22559950	      4.10158393	     -2.55374595	      2.07241690	      7.40050555	      2.98806253
      1.32033333	      2.68300495	     -3.91170867	     -4.24967634	      0.11989868	      1.04580708	      0.31373150	    -21.57789741	      6.85974719	     -3.44998296	    -18.10692549	     -3.80846580	     -2.44201124	      3.12694664	     17.94822883	     -0.46204388	     -9.93073935	     -2.41741663	      8.58508138	      3.77841344	     -2.49160468	      2.14141150	      7.20921306	      3.03684573
      1.32450000	      2.73312225	     -3.77467448	     -4.45307739	      0.12630029	      1.04627190	      0.31390433	    -21.39841237	      6.51167844	     -3.52567739	    -19.03381676	     -4.67944385	     -2.27260221	      3.61353264	     17.58256035	     -0.33677732	     -9.78934217	     -2.39828048	      7.73767887	      3.10736113	     -2.33359466	      2.20476915	      7.01484804	      3.14571284
      1.32866667	      2.74116967	     -3.62917169	     -4.60602201	      0.13272022	      1.04666903	      0.31395149	    -21.13996925	      6.16084365	     -3.77110982	    -20.01554380	     -5.52524350	     -2.05010102	      3.99023028	     17.31928496	     -0.19189243	     -9.91178607	     -2.49715866	      7.11776742	      2.66831915	     -2.20778872	      2.25935086	      6.83022450	      3.19970988
      1.33283333	      2.75737214	     -3.49407952	     -4.70442665	      0.13901958	      1.04707990	      0.31399953	    -20.86686442	      5.84505900	     -4.03287418	    -21.01952673	     -6.33932973	     -1.86391718	      4.23726047	     17.09200715	     -0.05760221	    -10.11237015	     -2.67831065	      6.57046087	      2.33768641	     -2.12733039	      2.31254945	      6.62702704	      3.23799765
      1.33700000	      2.77045941	     -3.35047636	     -4.83429375	      0.14525377	      1.04752624	      0.31386340	    -20.55651478	      5.47888752	     -4.25493186	    -22.05631853	     -7.30746997	     -1.86814164	      5.42036955	     16.79794856	      0.11294306	     -9.72170263	     -2.68851064	      5.60222218	      1.10658402	     -1.70396857	      2.29793801	      6.49656204	      3.34341423
      1.34116667	      2.78604281	     -3.15942511	     -4.96179695	      0.15166533	      1.04799920	      0.31394949	    -20.25383095	      5.07916578	     -4.47706993	    -23.07768978	     -8.22694783	     -1.50326483	      5.65441796	     16.56342868	      0.29286147	    -10.00974926	     -2.87736424	      5.21559880	      1.10443013	     -1.62353162	      2.42779495	      6.20552930	      3.35384404
